HIERARCHY
ROOT HipCenter
{
    OFFSET 0.0 0.0 -0.0
    CHANNELS 6 Xposition Yposition Zposition Zrotation Xrotation Yrotation
    JOINT Spine
    {
        OFFSET 0.0 0.12102294713258743 0.0
        CHANNELS 3 Zrotation Xrotation Yrotation
        JOINT ShoulderCenter
        {
            OFFSET 0.0 0.3342655599117279 0.0
            CHANNELS 3 Zrotation Xrotation Yrotation
            JOINT LeftShoulder
            {
                OFFSET 0.1909063160419464 0.0 0.0
                CHANNELS 3 Zrotation Xrotation Yrotation
                JOINT LeftElbow
                {
                    OFFSET 0.29750585556030273 0.0 0.0
                    CHANNELS 3 Zrotation Xrotation Yrotation
                    JOINT LeftWrist
                    {
                        OFFSET 0.2960520386695862 0.0 0.0
                        CHANNELS 3 Zrotation Xrotation Yrotation
                        JOINT LeftHand
                        {
                            OFFSET 0.044107384979724884 0.0 0.0
                            CHANNELS 3 Zrotation Xrotation Yrotation
                            End Site
                            {
                                OFFSET 0.017642952501773834 0.0 0.0
                            }
                        }
                    }
                }
            }
            JOINT RightShoulder
            {
                OFFSET -0.1909063160419464 0.0 0.0
                CHANNELS 3 Zrotation Xrotation Yrotation
                JOINT RightElbow
                {
                    OFFSET -0.29750585556030273 0.0 0.0
                    CHANNELS 3 Zrotation Xrotation Yrotation
                    JOINT RightWrist
                    {
                        OFFSET -0.2960520386695862 0.0 0.0
                        CHANNELS 3 Zrotation Xrotation Yrotation
                        JOINT RightHand
                        {
                            OFFSET -0.044107384979724884 0.0 0.0
                            CHANNELS 3 Zrotation Xrotation Yrotation
                            End Site
                            {
                                OFFSET -0.017642952501773834 0.0 0.0
                            }
                        }
                    }
                }
            }
            End Site
            {
                OFFSET 0.0 0.1337062269449234 0.0
            }
        }
    }
    JOINT LeftHip
    {
        OFFSET 0.13972541689872742 0.0 0.0
        CHANNELS 3 Zrotation Xrotation Yrotation
        JOINT LeftKnee
        {
            OFFSET 0.0 -0.4064760208129883 0.0
            CHANNELS 3 Zrotation Xrotation Yrotation
            JOINT LeftAnkle
            {
                OFFSET 0.0 -0.44779008626937866 0.0
                CHANNELS 3 Zrotation Xrotation Yrotation
                JOINT LeftFoot
                {
                    OFFSET 0.0 -0.10071974992752075 0.0
                    CHANNELS 3 Zrotation Xrotation Yrotation
                    End Site
                    {
                        OFFSET 0.0 0.0 0.04028789699077606
                    }
                }
            }
        }
    }
    JOINT RightHip
    {
        OFFSET -0.13972541689872742 0.0 0.0
        CHANNELS 3 Zrotation Xrotation Yrotation
        JOINT RightKnee
        {
            OFFSET 0.0 -0.4064760208129883 0.0
            CHANNELS 3 Zrotation Xrotation Yrotation
            JOINT RightAnkle
            {
                OFFSET 0.0 -0.44779008626937866 0.0
                CHANNELS 3 Zrotation Xrotation Yrotation
                JOINT RightFoot
                {
                    OFFSET 0.0 -0.10071974992752075 0.0
                    CHANNELS 3 Zrotation Xrotation Yrotation
                    End Site
                    {
                        OFFSET 0.0 0.0 0.04028789699077606
                    }
                }
            }
        }
    }
}
MOTION
Frames: 8
Frame Time: 0.03333333333333333
0.7059999704360962 -0.02800000086426735 0.8560000061988831 5.797034090112716e-06 -89.05326080331795 1.105680025243367 -0.14620415678053703 -16.35229349523861 1.1788899148346197 -3.3362601272544914e-07 -1.1702979374266868e-06 -4.160285455672676 80.0403845626774 52.232128914333785 -20.67323625208792 2.776976172102012e-07 -2.639790562434435e-06 55.39531276137969 3.7012140809978997e-06 -47.06324619617581 61.80058198813333 -3.4787316828507214e-15 1.5902773407317584e-15 4.827710013492361e-32 -55.575556947631014 58.43061907891238 4.541920843724126 -1.489666120815988e-06 3.893428381260638e-06 -50.08822765874513 179.99999570334134 -66.7217969331428 127.56192167335787 -3.1805546814635168e-15 -4.770832022195275e-15 -1.3241718894150476e-31 19.729799857820545 29.768674190402027 -78.15009302330878 -68.21331479265616 12.280541805847948 5.927876573424509 65.87110789749873 -20.347278819510574 16.53410368138937 0.0 0.0 -1.5902773407317588e-15 -18.25911058319936 35.0558444020238 67.1113663038569 65.21255295288371 16.17878081418578 -9.37184990520975 -73.8077154154156 -10.767431918113218 -10.404217612022512 6.361109362927035e-15 0.0 0.0
0.7129999995231628 -0.08299999684095383 0.9190000295639038 4.398649926373296 -77.53849917854045 4.601101898399986 -2.0978041411310473 -15.326176724641565 0.774882229908837 -2.5533695856061896e-08 -4.247566010369161e-06 -3.2603315860884328 90.54497818394941 53.188779523866 -29.61216924427855 7.59280068952339e-07 -3.43391114986682e-06 50.55096219217294 1.5082591294724918e-06 -51.17292777712737 60.31630479866097 8.19986753814813e-15 -1.1379602174660566e-31 -1.5902773407317584e-15 -60.61196442870062 64.23212810366827 10.71279663334846 -1.2109555665594067e-06 4.728399216813789e-06 -49.087081518128365 179.99999630490458 -64.85040662344471 129.58996700213416 1.5902773407317588e-15 0.0 0.0 16.78565333783585 26.930754272829724 -75.18774333583056 -67.76902828583519 11.476448585416621 4.6933581430487665 75.36874918286567 -33.432657600566436 36.58865758140063 0.0 0.0 -3.1805546814635168e-15 -17.369829732180975 30.858325309697346 63.70495021285622 64.8966647140065 17.540905957077037 -8.46038805099745 -96.23352670932742 -17.85239028101889 -42.12364220962903 0.0 0.0 3.1805546814635168e-15
0.7179999947547913 -0.11999999731779099 0.9700000286102295 2.602528659537299 -68.53213885080893 2.082581449089694 -3.3469076192550937 -13.690325185248545 0.3980505995141206 -1.0911931524260628e-07 -4.453989951195886e-06 -3.4863932892600755 101.71794807247593 50.887397550163506 -40.090510481166454 2.731046649143984e-06 3.408391465456042e-06 45.054659252023 -1.0679301979972409e-05 -52.873103719966686 58.730849288120226 -1.5902773407317584e-15 -3.1805546814635168e-15 -3.1805546814635168e-15 -74.0597595594623 67.03569560235049 24.456298150785464 -9.572991244803589e-07 -8.982571849024375e-07 -45.05681694159338 179.99999201598527 -57.854791972788234 129.16128237410422 -6.3611093629270335e-15 3.1805546814635168e-15 1.7655625192200634e-31 15.489817325154435 19.375068083350293 -71.12322841368916 -73.56308737544786 12.688387190865628 5.405380802880415 87.28393362688026 -37.704583352385995 52.14876302073909 0.0 0.0 -7.95138670365879e-16 -15.525517115920723 23.804797771356984 59.6298611109661 68.7885770346122 22.290356526253696 -10.747424873390203 -106.85025937140395 -16.946058963920304 -65.37198191234735 3.1805546814635168e-15 6.7586786981099735e-15 -1.8759101766713175e-31
0.7229999899864197 -0.13199999928474426 1.0140000581741333 3.43358636880187 -65.71223629778261 2.4292943313560764 -3.387912062645593 -9.830780418057113 0.415818256457351 -1.0570052314668684e-07 2.2706216419648827e-06 -4.10835012834283 112.22260355422249 47.116240317029366 -54.5535139845518 6.292422369191144e-08 -1.1202148001995175e-06 42.53499058659945 -6.214654804994647e-06 -52.80905325307575 57.74175388156763 -7.951386703658793e-15 0.0 0.0 -91.95556319159047 62.66971610258245 42.58535467187358 -1.5669553522545715e-06 3.800945825758004e-07 -42.631348374153475 179.99999911601648 -61.560741777469914 131.99855474218992 3.1805546814635168e-15 -1.5902773407317582e-15 6.3611093629270335e-15 14.158259212279782 15.620976486949598 -68.84497943569096 -79.53726273022379 15.062493892348565 7.443990415101681 90.67659591243338 -37.17093340148461 52.30160451800746 -8.827812596100317e-32 6.3611093629270335e-15 1.5902773407317584e-15 -15.367350487836076 20.02384175760014 56.85601364939038 74.41330803563667 26.969904934444173 -14.799814448436345 -108.14401562194372 -16.258691120024498 -61.87252401190754 0.0 0.0 3.1805546814635168e-15
0.7279999852180481 -0.12099999934434891 1.0470000505447388 4.398713922620578 -64.63327008597078 3.1931593613286187 -2.307169269185536 -6.844091501172049 0.4741290267547418 -1.747307900171987e-07 1.1408813928669694e-06 -4.040750778939072 121.05088897344494 42.65559578058819 -65.87593276420046 1.9150975140057892e-06 -5.099462015231486e-06 36.37101454211792 3.082786596462494e-08 -51.9538744304584 55.794584574468864 -3.1805546814635176e-15 0.0 0.0 -104.91855991185753 56.574655578221666 56.267825417157404 -3.912071813240187e-06 -3.071704257502139e-06 -41.50752453530875 -179.99999789676144 -67.46320681663694 133.9479690261224 3.180554681463516e-15 -1.590277340731758e-15 4.4139062980501586e-32 11.803924499550378 14.851569031554265 -64.55395759571141 -81.58192933013625 20.228088980521218 10.472143015416089 93.562132131221 -36.9570234913511 55.180164939862955 7.951386703658794e-16 1.1034765745125397e-32 1.5902773407317588e-15 -15.306756996080619 18.813250724217433 55.42390378113347 76.64911464271906 29.91530131779361 -16.6636413217455 -107.69127739672292 -15.63896685251642 -60.13541440760773 0.0 0.0 3.1805546814635176e-15
0.734000027179718 -0.09700000286102295 1.0759999752044678 3.1221526831283692 -62.977677865565646 2.7690043583538135 -2.4477277936131907 -5.630766287937999 0.06993333529234765 -5.4984005189671895e-08 2.5777048343500112e-06 -3.8088144975852862 128.91944458971608 38.265226536391644 -74.99609804611922 9.710599333231652e-07 -5.4009982865002445e-06 32.24075465369102 5.926481885743213e-07 -48.253940270680225 53.0096107533302 3.531125038440127e-31 -6.3611093629270335e-15 6.3611093629270335e-15 -113.14403247529695 53.68546738010504 67.38904975789617 -6.328218277497603e-07 1.5961559305954697e-06 -40.52854728654641 179.99998508013903 -71.4932242043677 135.73140084696536 -3.1805546814635168e-15 -1.7655625192200634e-31 6.3611093629270335e-15 9.385811345223505 15.43443187171242 -57.86708033867301 -79.17646988089962 28.140331203950094 14.234683609232407 95.17678495416621 -39.92062353855752 61.09118597506504 6.896728590703373e-34 -1.987846675914698e-16 3.975693351829396e-16 -14.817498150016238 19.862943460959073 58.32567654623398 75.45769715353471 26.984437865543732 -14.139085769193178 -107.35169585904065 -13.213772118022321 -57.52589691889524 0.0 -1.3517357396219944e-14 0.0
0.7379999756813049 -0.06800000369548798 1.1009999513626099 0.9548289547419405 -60.25168028368258 1.169923790210538 -1.5373139335980581 -5.390167434770558 0.2153396162439717 8.885151064670962e-08 2.230656581788404e-06 -3.8314262133453667 132.48504176155438 36.18307538457904 -79.7757920966133 2.8225619816863384e-06 -7.55737456289839e-06 29.011690047441686 -2.7741265941252876e-06 -44.40616035088079 51.77117257592457 6.361109362927033e-15 1.7655625192200634e-31 3.1805546814635164e-15 -117.5459149323772 52.24906276246261 74.47709572169401 4.224568040920367e-06 -1.0384405696696744e-06 -39.068529999945056 179.99998606321824 -79.59604960427828 137.90879210257006 -3.1805546814635168e-15 0.0 0.0 9.59932368210946 16.168918420626863 -59.423313997952405 -75.23958781357561 26.88633074473991 11.458075216419678 94.67755712489578 -38.603095383897895 64.29464781222148 0.0 0.0 -7.951386703658792e-16 -13.206270536919495 20.712797808805487 56.480068088455965 70.59107453666331 27.71339580873722 -12.54124322805967 -106.9404144513397 -13.569295283922687 -67.62094491557289 0.0 -6.3611093629270335e-15 0.0
0.7409999966621399 -0.03500000014901161 1.121000051498413 -0.8550864129391286 -56.438120114752465 -0.15920560166555675 -0.9597559182101084 -5.757845340813732 0.2705683060533949 9.95322398949256e-08 -4.062507231432975e-08 -3.957107238120832 132.99702400755987 36.79912670494049 -81.11322056362806 -5.2670349273006026e-06 -3.413442670305473e-06 27.540428376420643 4.854624319911369e-06 -39.00227254195829 49.39221880152742 -6.361109362927035e-15 0.0 0.0 -117.2119702684501 51.920225856913724 75.97074618233911 -2.6351323276971497e-06 -5.708019661397309e-06 -36.540856753121304 -179.99996101472905 -81.75169879170352 139.5288278426104 0.0 -6.3611093629270335e-15 0.0 9.844650912916132 15.961837721431932 -59.13441284083996 -70.07558804416712 26.481630075586168 8.585080007647958 92.6330779036793 -37.06725146260197 67.45608217390956 -3.975693351829396e-16 -9.93923337957349e-17 -9.93923337957349e-16 -12.336639201029563 20.960561261371485 55.93756443804249 65.0822940913945 26.08362259456209 -9.32259116467765 -106.38134798738562 -13.643656420681426 -81.87635909015731 -3.1805546814635176e-15 0.0 0.0
